<?xml version="1.0" standalone="no"?><!DOCTYPE svg PUBLIC "-//W3C//DTD SVG 1.1//EN" "http://www.w3.org/Graphics/SVG/1.1/DTD/svg11.dtd"><svg t="1560930507072" class="icon" style="" viewBox="0 0 1024 1024" version="1.1" xmlns="http://www.w3.org/2000/svg" p-id="1195" xmlns:xlink="http://www.w3.org/1999/xlink" width="200" height="200"><defs><style type="text/css"></style></defs><path d="M787.413333 808.746667H235.946667a21.333333 21.333333 0 0 1-21.333334-21.333334V235.946667a21.333333 21.333333 0 0 1 21.333334-21.333334h324.906666a21.333333 21.333333 0 0 1 0 42.666667H257.28v508.8h508.8V536.32a21.333333 21.333333 0 0 1 21.333333-21.333333 21.333333 21.333333 0 0 1 21.333334 21.333333v251.093333a21.333333 21.333333 0 0 1-21.333334 21.333334z" fill="#c9c9c9" p-id="1196"></path><path d="M434.986667 613.12a22.4 22.4 0 0 1-15.146667-6.186667 21.333333 21.333333 0 0 1-5.973333-17.92l10.666666-80a21.333333 21.333333 0 0 1 5.973334-12.16l271.573333-271.573333a21.333333 21.333333 0 0 1 15.146667-6.186667 21.333333 21.333333 0 0 1 14.933333 6.186667l69.333333 69.333333a21.333333 21.333333 0 0 1 0 30.08L529.92 597.333333a21.333333 21.333333 0 0 1-12.16 5.973334l-80 10.666666z m30.72-91.306667l-5.973334 45.226667 45.226667-6.186667 251.306667-251.306666-39.04-39.04z" fill="#c9c9c9" p-id="1197"></path></svg>