<?xml version="1.0" standalone="no"?><!DOCTYPE svg PUBLIC "-//W3C//DTD SVG 1.1//EN" "http://www.w3.org/Graphics/SVG/1.1/DTD/svg11.dtd"><svg class="icon" width="200px" height="200.00px" viewBox="0 0 1024 1024" version="1.1" xmlns="http://www.w3.org/2000/svg"><path d="M1009.15652 172.549c-18.956-53.04-63.237-94.097-121.491-112.642-54.925-17.486-124.129-12.654-176.293 12.308-31.815 15.219-60.979 37.944-89.177 69.479-11.057 12.366-21.639 26.028-31.468 40.608-43.158 64.001-64.853 137.573-77.102 199.261-12.332-61.696-34.163-135.268-77.569-199.244-9.891-14.588-20.551-28.258-31.681-40.627-28.37-31.532-57.716-54.258-89.731-69.477-52.484-24.963-122.116-29.798-177.386-12.308C78.63052 78.45 34.07252 119.512 15.00352 172.56 4.79052 200.975-0.65348 232.163 0.06252 258.127c0.696 25.213 3.812 50.289 9.009 72.505 8.656 37.072 22.528 75.801 42.414 118.4 9.608 20.592 34.15 29.509 54.8 19.938 20.657-9.583 29.609-34.047 19.997-54.641-17.454-37.396-29.508-70.876-36.865-102.368-3.958-16.924-6.34-36.323-6.883-56.095-0.433-15.669 3.454-36.962 10.136-55.56 10.309-28.68 35.652-51.278 69.542-61.994 35.278-11.168 83.363-7.81 116.924 8.146 21.995 10.46 42.872 26.865 63.83 50.16 8.626 9.587 16.95 20.273 24.75 31.775 47.586 70.135 64.723 158.613 73.475 219.058 20.715 143.188 10.458 289.296-0.792 400.603-0.438 4.345-0.851 8.702-1.269 13.069-2.096 22.025-4.079 42.831-9.039 61.924-5.715 21.99 7.528 44.437 29.584 50.131a41.365 41.365 0 0 0 10.379 1.326l0.126-0.003v0.003h86.535v-0.044c0.075 0.001 0.149 0.005 0.226 0.005 3.403 0 6.867-0.427 10.313-1.327 21.917-5.693 35.079-28.139 29.398-50.125-4.922-19.059-6.889-39.83-8.978-61.822-0.421-4.408-0.837-8.809-1.275-13.179-11.173-111.303-21.357-257.424-0.775-400.578 8.688-60.436 25.707-148.895 73.017-219.049 7.747-11.497 16.022-22.191 24.591-31.775 20.827-23.292 41.575-39.696 63.434-50.155 33.357-15.955 81.131-19.313 116.207-8.146 33.667 10.715 58.857 33.313 69.103 61.99 6.642 18.6 10.503 39.891 10.072 55.56-0.539 19.749-2.905 39.151-6.841 56.099-7.311 31.475-19.295 64.958-36.64 102.358-9.549 20.596-0.646 45.058 19.881 54.637 20.522 9.576 44.908 0.652 54.462-19.941 19.749-42.603 33.537-81.327 42.144-118.39 5.171-22.248 8.263-47.32 8.952-72.504 0.709-25.963-4.701-57.148-14.85-85.569z" fill="#d81e06" /></svg>