<?xml version="1.0" standalone="no"?><!DOCTYPE svg PUBLIC "-//W3C//DTD SVG 1.1//EN" "http://www.w3.org/Graphics/SVG/1.1/DTD/svg11.dtd"><svg t="1559454971758" class="icon" style="" viewBox="0 0 1024 1024" version="1.1" xmlns="http://www.w3.org/2000/svg" p-id="699" xmlns:xlink="http://www.w3.org/1999/xlink" width="200" height="200"><defs><style type="text/css"></style></defs><path d="M657.329 997.191H379.437c-34.065 0-63.155-25.433-67.721-59.178L227.944 358.05c-1.579-10.933 6.003-21.075 16.935-22.654 10.939-1.584 21.075 6.003 22.654 16.935l83.815 580.268c1.869 14.021 13.945 24.593 28.089 24.593h277.892c14.145 0 26.22-10.572 28.089-24.592l0.029-0.217 83.786-580.052c1.579-10.933 11.721-18.515 22.654-16.935 10.932 1.579 18.515 11.721 16.936 22.654L725.05 938.012c-4.565 33.746-33.654 59.179-67.721 59.179z" p-id="700" fill="#B22222"></path><path d="M397.088 836.712c-9.78 0-18.331-7.181-19.77-17.144l-6.843-47.371c-1.579-10.933 6.003-21.075 16.935-22.654 10.93-1.578 21.075 6.004 22.654 16.936l6.843 47.371c1.579 10.933-6.003 21.075-16.935 22.654a20.16 20.16 0 0 1-2.884 0.208zM367.606 632.604c-9.78 0-18.331-7.181-19.77-17.144l-13.03-90.205c-1.579-10.933 6.003-21.075 16.935-22.654 10.934-1.586 21.075 6.003 22.654 16.935l13.03 90.205c1.579 10.933-6.003 21.075-16.935 22.654-0.969 0.14-1.933 0.209-2.884 0.209zM854.786 344.633H181.98c-32.1 0-58.214-26.115-58.214-58.214v-44.416c0-32.1 26.115-58.214 58.214-58.214h672.806c32.1 0 58.214 26.115 58.214 58.214v44.416c0 32.099-26.114 58.214-58.214 58.214zM181.98 223.789c-10.043 0-18.214 8.171-18.214 18.214v44.416c0 10.043 8.171 18.214 18.214 18.214h672.806c10.043 0 18.214-8.171 18.214-18.214v-44.416c0-10.043-8.171-18.214-18.214-18.214H181.98z" p-id="701" fill="#B22222"></path><path d="M679.716 202.416a19.943 19.943 0 0 1-14.143-5.858c-7.811-7.811-7.811-20.474 0-28.284l154.12-154.121c7.811-7.811 20.475-7.811 28.285 0 7.81 7.811 7.81 20.474 0 28.284l-154.12 154.121a19.939 19.939 0 0 1-14.142 5.858z" p-id="702" fill="#B22222"></path></svg>